{"asset":{"version":"2.0","generator":"Blockbench 5.0.7 glTF exporter"},"scenes":[{"nodes":[0,1,2,3,4,5,6],"name":"blockbench_export"}],"scene":0,"nodes":[{"translation":[0,-0.25,0.8125],"name":"mesh","mesh":0},{"rotation":[0,0,0.7071067811865475,0.7071067811865476],"translation":[-1.2335811384723961e-17,0.4375,1.125],"name":"cylinder","mesh":1},{"rotation":[0,0,0.7071067811865475,0.7071067811865476],"translation":[-1.2335811384723961e-17,0.5,0.59375],"name":"cylinder","mesh":2},{"rotation":[-0.7071067811865475,0,0,0.7071067811865476],"translation":[0,0,0.3125],"name":"cylinder","mesh":3},{"rotation":[0.12940952255126037,0.017037086855465858,0.1294095225512603,0.9829629131445342],"translation":[0,-0.0625,0.8125],"name":"mesh","mesh":4},{"rotation":[-0.21643961393810288,0,0,0.9762960071199334],"translation":[0,-0.0625,0.8125],"name":"mesh","mesh":5},{"rotation":[0.12940952255126037,-0.017037086855465858,-0.1294095225512603,0.9829629131445342],"translation":[0,-0.0625,0.8125],"name":"mesh","mesh":6}],"bufferViews":[{"buffer":0,"byteOffset":0,"byteLength":288,"target":34962,"byteStride":12},{"buffer":0,"byteOffset":288,"byteLength":288,"target":34962,"byteStride":12},{"buffer":0,"byteOffset":576,"byteLength":192,"target":34962,"byteStride":8},{"buffer":0,"byteOffset":768,"byteLength":72,"target":34963},{"buffer":0,"byteOffset":840,"byteLength":960,"target":34962,"byteStride":12},{"buffer":0,"byteOffset":1800,"byteLength":960,"target":34962,"byteStride":12},{"buffer":0,"byteOffset":2760,"byteLength":640,"target":34962,"byteStride":8},{"buffer":0,"byteOffset":3400,"byteLength":192,"target":34963},{"buffer":0,"byteOffset":3592,"byteLength":960,"target":34962,"byteStride":12},{"buffer":0,"byteOffset":4552,"byteLength":960,"target":34962,"byteStride":12},{"buffer":0,"byteOffset":5512,"byteLength":640,"target":34962,"byteStride":8},{"buffer":0,"byteOffset":6152,"byteLength":192,"target":34963},{"buffer":0,"byteOffset":6344,"byteLength":2496,"target":34962,"byteStride":12},{"buffer":0,"byteOffset":8840,"byteLength":2496,"target":34962,"byteStride":12},{"buffer":0,"byteOffset":11336,"byteLength":1664,"target":34962,"byteStride":8},{"buffer":0,"byteOffset":13000,"byteLength":576,"target":34963},{"buffer":0,"byteOffset":13576,"byteLength":288,"target":34962,"byteStride":12},{"buffer":0,"byteOffset":13864,"byteLength":288,"target":34962,"byteStride":12},{"buffer":0,"byteOffset":14152,"byteLength":192,"target":34962,"byteStride":8},{"buffer":0,"byteOffset":14344,"byteLength":72,"target":34963},{"buffer":0,"byteOffset":14416,"byteLength":288,"target":34962,"byteStride":12},{"buffer":0,"byteOffset":14704,"byteLength":288,"target":34962,"byteStride":12},{"buffer":0,"byteOffset":14992,"byteLength":192,"target":34962,"byteStride":8},{"buffer":0,"byteOffset":15184,"byteLength":72,"target":34963},{"buffer":0,"byteOffset":15256,"byteLength":288,"target":34962,"byteStride":12},{"buffer":0,"byteOffset":15544,"byteLength":288,"target":34962,"byteStride":12},{"buffer":0,"byteOffset":15832,"byteLength":192,"target":34962,"byteStride":8},{"buffer":0,"byteOffset":16024,"byteLength":72,"target":34963}],"buffers":[{"byteLength":16096,"uri":"data:application/octet-stream;base64,"}],"accessors":[{"bufferView":0,"componentType":5126,"count":24,"max":[0.1875,0.5,0.4375],"min":[-0.1875,0.0625,-0.5],"type":"VEC3"},{"bufferView":1,"componentType":5126,"count":24,"max":[1,1,1],"min":[-1,-1,-1],"type":"VEC3"},{"bufferView":2,"componentType":5126,"count":24,"max":[0.34375,0.5],"min":[0,0],"type":"VEC2"},{"bufferView":3,"componentType":5123,"count":36,"max":[23],"min":[0],"type":"SCALAR"},{"bufferView":4,"componentType":5126,"count":80,"max":[0.25,0.0625,0.1875],"min":[-0.1875,-0.0625,-0.25],"type":"VEC3"},{"bufferView":5,"componentType":5126,"count":80,"max":[1,1,1],"min":[-1,-1,-1],"type":"VEC3"},{"bufferView":6,"componentType":5126,"count":80,"max":[0.703125,0.65625],"min":[0.3125,0.140625],"type":"VEC2"},{"bufferView":7,"componentType":5123,"count":96,"max":[79],"min":[0],"type":"SCALAR"},{"bufferView":8,"componentType":5126,"count":80,"max":[0.25,0.125,0.25],"min":[-0.25,-0.125,-0.25],"type":"VEC3"},{"bufferView":9,"componentType":5126,"count":80,"max":[1,1,1],"min":[-1,-1,-1],"type":"VEC3"},{"bufferView":10,"componentType":5126,"count":80,"max":[0.671875,0.6875],"min":[0,0],"type":"VEC2"},{"bufferView":11,"componentType":5123,"count":96,"max":[79],"min":[0],"type":"SCALAR"},{"bufferView":12,"componentType":5126,"count":208,"max":[0.25,0.3125,0.25],"min":[-0.25,-0.0625,-0.25],"type":"VEC3"},{"bufferView":13,"componentType":5126,"count":208,"max":[1,1,1],"min":[-1,-1,-1],"type":"VEC3"},{"bufferView":14,"componentType":5126,"count":208,"max":[0.6875,0.6032109260559082],"min":[0.005360937677323818,0],"type":"VEC2"},{"bufferView":15,"componentType":5123,"count":288,"max":[207],"min":[0],"type":"SCALAR"},{"bufferView":16,"componentType":5126,"count":24,"max":[0.03125,0,0.03125],"min":[-0.03125,-0.875,-0.03125],"type":"VEC3"},{"bufferView":17,"componentType":5126,"count":24,"max":[1,1,1],"min":[-1,-1,-1],"type":"VEC3"},{"bufferView":18,"componentType":5126,"count":24,"max":[0.578125,0.78125],"min":[0.125,0.0625],"type":"VEC2"},{"bufferView":19,"componentType":5123,"count":36,"max":[23],"min":[0],"type":"SCALAR"},{"bufferView":20,"componentType":5126,"count":24,"max":[0.03125,0,0.03125],"min":[-0.03125,-0.875,-0.03125],"type":"VEC3"},{"bufferView":21,"componentType":5126,"count":24,"max":[1,1,1],"min":[-1,-1,-1],"type":"VEC3"},{"bufferView":22,"componentType":5126,"count":24,"max":[0.640625,0.8125],"min":[0.0625,0],"type":"VEC2"},{"bufferView":23,"componentType":5123,"count":36,"max":[23],"min":[0],"type":"SCALAR"},{"bufferView":24,"componentType":5126,"count":24,"max":[0.03125,0,0.03125],"min":[-0.03125,-0.875,-0.03125],"type":"VEC3"},{"bufferView":25,"componentType":5126,"count":24,"max":[1,1,1],"min":[-1,-1,-1],"type":"VEC3"},{"bufferView":26,"componentType":5126,"count":24,"max":[0.34375,0.734375],"min":[0.15625,0.390625],"type":"VEC2"},{"bufferView":27,"componentType":5123,"count":36,"max":[23],"min":[0],"type":"SCALAR"}],"materials":[{"pbrMetallicRoughness":{"metallicFactor":0,"roughnessFactor":1,"baseColorTexture":{"index":0}},"alphaMode":"MASK","alphaCutoff":0.05,"doubleSided":true}],"textures":[{"sampler":0,"source":0,"name":"camera"}],"samplers":[{"magFilter":9728,"minFilter":9728,"wrapS":33071,"wrapT":33071}],"images":[{"mimeType":"image/png","uri":"data:image/png;base64,"}],"meshes":[{"primitives":[{"mode":4,"attributes":{"POSITION":0,"NORMAL":1,"TEXCOORD_0":2},"indices":3,"material":0}]},{"primitives":[{"mode":4,"attributes":{"POSITION":4,"NORMAL":5,"TEXCOORD_0":6},"indices":7,"material":0}]},{"primitives":[{"mode":4,"attributes":{"POSITION":8,"NORMAL":9,"TEXCOORD_0":10},"indices":11,"material":0}]},{"primitives":[{"mode":4,"attributes":{"POSITION":12,"NORMAL":13,"TEXCOORD_0":14},"indices":15,"material":0}]},{"primitives":[{"mode":4,"attributes":{"POSITION":16,"NORMAL":17,"TEXCOORD_0":18},"indices":19,"material":0}]},{"primitives":[{"mode":4,"attributes":{"POSITION":20,"NORMAL":21,"TEXCOORD_0":22},"indices":23,"material":0}]},{"primitives":[{"mode":4,"attributes":{"POSITION":24,"NORMAL":25,"TEXCOORD_0":26},"indices":27,"material":0}]}]}