{"asset":{"version":"2.0","generator":"Blockbench 5.0.7 glTF exporter"},"scenes":[{"nodes":[15,16,19],"name":"blockbench_export"}],"scene":0,"nodes":[{"translation":[0,0,-0.21875000000000022],"name":"cube","mesh":0},{"translation":[-0.00022321428571418181,-0.031645909133145245,-0.3139323372086371],"name":"muzzle_attachment","children":[0]},{"translation":[-0.00022321428571418181,0.043354090866855016,0.49231766279136363],"name":"rear_sight"},{"rotation":[0.7071067811865475,0,0,0.7071067811865476],"translation":[-0.00022321428571418181,0.08085409086685502,0.25481766279136364],"name":"cylinder","mesh":1},{"translation":[0,0,0.13124999999999995],"name":"cube","mesh":2},{"translation":[0,0,0.31875],"name":"cube","mesh":3},{"name":"scope","children":[3,4,5]},{"translation":[-0.00022321428571418181,-0.10664590913314498,0.5048176627913636],"name":"body","mesh":4},{"rotation":[-0.7071067811865475,0,0,0.7071067811865476],"translation":[-0.00022321428571429284,-0.0066459091331453335,-0.13893233720863862],"name":"barrel","mesh":5},{"translation":[-0.00022321428571418181,-0.10664590913314498,0.3923176627913638],"name":"mag_hole","mesh":6},{"translation":[1.2902005852577503e-17,-0.04375000000000004,0.415625],"name":"magazine","mesh":7},{"rotation":[0,0,0.7071067811865475,0.7071067811865476],"translation":[-0.03125000000000001,-0.012500000000000011,0.36249999999999993],"name":"button","mesh":8},{"translation":[0,0.09375,0.15000000000000002],"name":"cylinder","mesh":9},{"rotation":[0,0,-0.7071067811865475,0.7071067811865476],"translation":[-0.00022321428571418181,0.08125000000000004,0.15000000000000002],"name":"cylinder","mesh":10},{"translation":[-0.00022321428571418138,-0.1386771591331452,0.4516926627913636],"name":"trigger_guard","mesh":11},{"translation":[0.00022321428571418181,0.16914590913314498,-0.31731766279136364],"name":"sniper_rifle","children":[1,2,6,7,8,9,10,11,12,13,14]},{"translation":[0.045312500000000006,0.0984375,0.13124999999999998],"name":"cube","mesh":12},{"translation":[2.7755575615628914e-17,0.015624999999999972,0],"name":"cube","mesh":13},{"translation":[-2.7755575615628914e-17,-0.015625,0],"name":"sphere","mesh":14},{"rotation":[0,0,0.3007057995042731,0.9537169507482269],"translation":[0.06250000000000003,0.1421875,0.18125],"name":"bone","children":[17,18]}],"bufferViews":[{"buffer":0,"byteOffset":0,"byteLength":288,"target":34962,"byteStride":12},{"buffer":0,"byteOffset":288,"byteLength":288,"target":34962,"byteStride":12},{"buffer":0,"byteOffset":576,"byteLength":192,"target":34962,"byteStride":8},{"buffer":0,"byteOffset":768,"byteLength":72,"target":34963},{"buffer":0,"byteOffset":840,"byteLength":4416,"target":34962,"byteStride":12},{"buffer":0,"byteOffset":5256,"byteLength":4416,"target":34962,"byteStride":12},{"buffer":0,"byteOffset":9672,"byteLength":2944,"target":34962,"byteStride":8},{"buffer":0,"byteOffset":12616,"byteLength":1056,"target":34963},{"buffer":0,"byteOffset":13672,"byteLength":1824,"target":34962,"byteStride":12},{"buffer":0,"byteOffset":15496,"byteLength":1824,"target":34962,"byteStride":12},{"buffer":0,"byteOffset":17320,"byteLength":1216,"target":34962,"byteStride":8},{"buffer":0,"byteOffset":18536,"byteLength":432,"target":34963},{"buffer":0,"byteOffset":18968,"byteLength":1824,"target":34962,"byteStride":12},{"buffer":0,"byteOffset":20792,"byteLength":1824,"target":34962,"byteStride":12},{"buffer":0,"byteOffset":22616,"byteLength":1216,"target":34962,"byteStride":8},{"buffer":0,"byteOffset":23832,"byteLength":432,"target":34963},{"buffer":0,"byteOffset":24264,"byteLength":4704,"target":34962,"byteStride":12},{"buffer":0,"byteOffset":28968,"byteLength":4704,"target":34962,"byteStride":12},{"buffer":0,"byteOffset":33672,"byteLength":3136,"target":34962,"byteStride":8},{"buffer":0,"byteOffset":36808,"byteLength":1176,"target":34963},{"buffer":0,"byteOffset":37984,"byteLength":960,"target":34962,"byteStride":12},{"buffer":0,"byteOffset":38944,"byteLength":960,"target":34962,"byteStride":12},{"buffer":0,"byteOffset":39904,"byteLength":640,"target":34962,"byteStride":8},{"buffer":0,"byteOffset":40544,"byteLength":192,"target":34963},{"buffer":0,"byteOffset":40736,"byteLength":1248,"target":34962,"byteStride":12},{"buffer":0,"byteOffset":41984,"byteLength":1248,"target":34962,"byteStride":12},{"buffer":0,"byteOffset":43232,"byteLength":832,"target":34962,"byteStride":8},{"buffer":0,"byteOffset":44064,"byteLength":312,"target":34963},{"buffer":0,"byteOffset":44376,"byteLength":288,"target":34962,"byteStride":12},{"buffer":0,"byteOffset":44664,"byteLength":288,"target":34962,"byteStride":12},{"buffer":0,"byteOffset":44952,"byteLength":192,"target":34962,"byteStride":8},{"buffer":0,"byteOffset":45144,"byteLength":72,"target":34963},{"buffer":0,"byteOffset":45216,"byteLength":960,"target":34962,"byteStride":12},{"buffer":0,"byteOffset":46176,"byteLength":960,"target":34962,"byteStride":12},{"buffer":0,"byteOffset":47136,"byteLength":640,"target":34962,"byteStride":8},{"buffer":0,"byteOffset":47776,"byteLength":192,"target":34963},{"buffer":0,"byteOffset":47968,"byteLength":960,"target":34962,"byteStride":12},{"buffer":0,"byteOffset":48928,"byteLength":960,"target":34962,"byteStride":12},{"buffer":0,"byteOffset":49888,"byteLength":640,"target":34962,"byteStride":8},{"buffer":0,"byteOffset":50528,"byteLength":192,"target":34963},{"buffer":0,"byteOffset":50720,"byteLength":960,"target":34962,"byteStride":12},{"buffer":0,"byteOffset":51680,"byteLength":960,"target":34962,"byteStride":12},{"buffer":0,"byteOffset":52640,"byteLength":640,"target":34962,"byteStride":8},{"buffer":0,"byteOffset":53280,"byteLength":192,"target":34963},{"buffer":0,"byteOffset":53472,"byteLength":864,"target":34962,"byteStride":12},{"buffer":0,"byteOffset":54336,"byteLength":864,"target":34962,"byteStride":12},{"buffer":0,"byteOffset":55200,"byteLength":576,"target":34962,"byteStride":8},{"buffer":0,"byteOffset":55776,"byteLength":216,"target":34963},{"buffer":0,"byteOffset":55992,"byteLength":480,"target":34962,"byteStride":12},{"buffer":0,"byteOffset":56472,"byteLength":480,"target":34962,"byteStride":12},{"buffer":0,"byteOffset":56952,"byteLength":320,"target":34962,"byteStride":8},{"buffer":0,"byteOffset":57272,"byteLength":120,"target":34963},{"buffer":0,"byteOffset":57392,"byteLength":288,"target":34962,"byteStride":12},{"buffer":0,"byteOffset":57680,"byteLength":288,"target":34962,"byteStride":12},{"buffer":0,"byteOffset":57968,"byteLength":192,"target":34962,"byteStride":8},{"buffer":0,"byteOffset":58160,"byteLength":72,"target":34963},{"buffer":0,"byteOffset":58232,"byteLength":1344,"target":34962,"byteStride":12},{"buffer":0,"byteOffset":59576,"byteLength":1344,"target":34962,"byteStride":12},{"buffer":0,"byteOffset":60920,"byteLength":896,"target":34962,"byteStride":8},{"buffer":0,"byteOffset":61816,"byteLength":288,"target":34963}],"buffers":[{"byteLength":62104,"uri":"data:application/octet-stream;base64,"}],"accessors":[{"bufferView":0,"componentType":5126,"count":24,"max":[0.02500000037252903,0.05000000074505806,0],"min":[-0.02500000037252903,0,-0.0625],"type":"VEC3"},{"bufferView":1,"componentType":5126,"count":24,"max":[1,1,1],"min":[-1,-1,-1],"type":"VEC3"},{"bufferView":2,"componentType":5126,"count":24,"max":[0.78125,0.78125],"min":[0.0625,0],"type":"VEC2"},{"bufferView":3,"componentType":5123,"count":36,"max":[23],"min":[0],"type":"SCALAR"},{"bufferView":4,"componentType":5126,"count":368,"max":[0.03750000149011612,0.09375,0.03750000149011612],"min":[-0.03750000149011612,-0.25,-0.03750000149011612],"type":"VEC3"},{"bufferView":5,"componentType":5126,"count":368,"max":[1,1,1],"min":[-1,-1,-1],"type":"VEC3"},{"bufferView":6,"componentType":5126,"count":368,"max":[0.7796875238418579,0.778124988079071],"min":[0,0.0625],"type":"VEC2"},{"bufferView":7,"componentType":5123,"count":528,"max":[367],"min":[0],"type":"SCALAR"},{"bufferView":8,"componentType":5126,"count":152,"max":[0.03281249850988388,0.11406250298023224,-0.03750000149011612],"min":[-0.03281249850988388,0.01718750037252903,-0.0625],"type":"VEC3"},{"bufferView":9,"componentType":5126,"count":152,"max":[1,1,1],"min":[-1,-1,-1],"type":"VEC3"},{"bufferView":10,"componentType":5126,"count":152,"max":[0.730664074420929,0.7278125286102295],"min":[0.0037109374534338713,0.0625],"type":"VEC2"},{"bufferView":11,"componentType":5123,"count":216,"max":[151],"min":[0],"type":"SCALAR"},{"bufferView":12,"componentType":5126,"count":152,"max":[0.03281249850988388,0.11406250298023224,-0.03750000149011612],"min":[-0.03281249850988388,0.01718750037252903,-0.0625],"type":"VEC3"},{"bufferView":13,"componentType":5126,"count":152,"max":[1,1,1],"min":[-1,-1,-1],"type":"VEC3"},{"bufferView":14,"componentType":5126,"count":152,"max":[0.730664074420929,0.7278125286102295],"min":[0,0.0625],"type":"VEC2"},{"bufferView":15,"componentType":5123,"count":216,"max":[151],"min":[0],"type":"SCALAR"},{"bufferView":16,"componentType":5126,"count":392,"max":[0.05000000074505806,0.13124999403953552,0.392985463142395],"min":[-0.05000000074505806,-0.1611960530281067,-0.7435911893844604],"type":"VEC3"},{"bufferView":17,"componentType":5126,"count":392,"max":[1,1,0.9990957975387573],"min":[-1,-1,-1],"type":"VEC3"},{"bufferView":18,"componentType":5126,"count":392,"max":[0.6671770215034485,0.6903275847434998],"min":[0.004671826027333736,0],"type":"VEC2"},{"bufferView":19,"componentType":5123,"count":588,"max":[391],"min":[0],"type":"SCALAR"},{"bufferView":20,"componentType":5126,"count":80,"max":[0.01875000074505806,0.40625,0.01875000074505806],"min":[-0.01875000074505806,-0.09375,-0.01875000074505806],"type":"VEC3"},{"bufferView":21,"componentType":5126,"count":80,"max":[1,1,1],"min":[-1,-1,-1],"type":"VEC3"},{"bufferView":22,"componentType":5126,"count":80,"max":[0.8062499761581421,0.800000011920929],"min":[0,0],"type":"VEC2"},{"bufferView":23,"componentType":5123,"count":96,"max":[79],"min":[0],"type":"SCALAR"},{"bufferView":24,"componentType":5126,"count":104,"max":[0.04374999925494194,0.125,0.16875000298023224],"min":[-0.04374999925494194,0.04843749850988388,-0.125],"type":"VEC3"},{"bufferView":25,"componentType":5126,"count":104,"max":[1,1,1],"min":[-1,-1,-1],"type":"VEC3"},{"bufferView":26,"componentType":5126,"count":104,"max":[0.6875,0.6875],"min":[0.09531249850988388,0],"type":"VEC2"},{"bufferView":27,"componentType":5123,"count":156,"max":[103],"min":[0],"type":"SCALAR"},{"bufferView":28,"componentType":5126,"count":24,"max":[0.012500000186264515,0.0625,0.05312500149011612],"min":[-0.012500000186264515,-0.03125,-0.05312500149011612],"type":"VEC3"},{"bufferView":29,"componentType":5126,"count":24,"max":[1,1,1],"min":[-1,-1,-1],"type":"VEC3"},{"bufferView":30,"componentType":5126,"count":24,"max":[0.734375,0.828125],"min":[0,0],"type":"VEC2"},{"bufferView":31,"componentType":5123,"count":36,"max":[23],"min":[0],"type":"SCALAR"},{"bufferView":32,"componentType":5126,"count":80,"max":[0.015625,0.03125,0.015625],"min":[-0.015625,0,-0.015625],"type":"VEC3"},{"bufferView":33,"componentType":5126,"count":80,"max":[1,1,1],"min":[-1,-1,-1],"type":"VEC3"},{"bufferView":34,"componentType":5126,"count":80,"max":[0.796875,0.71875],"min":[0.0625,0],"type":"VEC2"},{"bufferView":35,"componentType":5123,"count":96,"max":[79],"min":[0],"type":"SCALAR"},{"bufferView":36,"componentType":5126,"count":80,"max":[0.015625,0.03125,0.015625],"min":[-0.015625,0,-0.015625],"type":"VEC3"},{"bufferView":37,"componentType":5126,"count":80,"max":[1,1,1],"min":[-1,-1,-1],"type":"VEC3"},{"bufferView":38,"componentType":5126,"count":80,"max":[0.71875,0.703125],"min":[0.1875,0],"type":"VEC2"},{"bufferView":39,"componentType":5123,"count":96,"max":[79],"min":[0],"type":"SCALAR"},{"bufferView":40,"componentType":5126,"count":80,"max":[0.015625,0.04062499850988388,0.015625],"min":[-0.015625,-0.04062499850988388,-0.015625],"type":"VEC3"},{"bufferView":41,"componentType":5126,"count":80,"max":[1,1,1],"min":[-1,-1,-1],"type":"VEC3"},{"bufferView":42,"componentType":5126,"count":80,"max":[0.703125,0.625],"min":[0.1875,0],"type":"VEC2"},{"bufferView":43,"componentType":5123,"count":96,"max":[79],"min":[0],"type":"SCALAR"},{"bufferView":44,"componentType":5126,"count":72,"max":[0.02187499962747097,0.03828125074505806,0.11093749850988388],"min":[-0.02187499962747097,-0.01796874962747097,-0.02656250074505806],"type":"VEC3"},{"bufferView":45,"componentType":5126,"count":72,"max":[1,1,1],"min":[-1,-1,-1],"type":"VEC3"},{"bufferView":46,"componentType":5126,"count":72,"max":[0.65625,0.7893906235694885],"min":[0,0.125],"type":"VEC2"},{"bufferView":47,"componentType":5123,"count":108,"max":[71],"min":[0],"type":"SCALAR"},{"bufferView":48,"componentType":5126,"count":40,"max":[0.007031249813735485,0.08749999850988388,0.0625],"min":[-0.02187499962747097,0.05937499925494194,-0.10625000298023224],"type":"VEC3"},{"bufferView":49,"componentType":5126,"count":40,"max":[0.9841684699058533,1,1],"min":[-0.9997918009757996,-0.9997918009757996,-1],"type":"VEC3"},{"bufferView":50,"componentType":5126,"count":40,"max":[0.78125,0.8125],"min":[0.4068359434604645,0],"type":"VEC2"},{"bufferView":51,"componentType":5123,"count":60,"max":[39],"min":[0],"type":"SCALAR"},{"bufferView":52,"componentType":5126,"count":24,"max":[0.0062500000931322575,0.02500000037252903,0.0062500000931322575],"min":[-0.0062500000931322575,-0.02500000037252903,-0.0062500000931322575],"type":"VEC3"},{"bufferView":53,"componentType":5126,"count":24,"max":[1,1,1],"min":[-1,-1,-1],"type":"VEC3"},{"bufferView":54,"componentType":5126,"count":24,"max":[0.796875,0.8125],"min":[0.25,0.1875],"type":"VEC2"},{"bufferView":55,"componentType":5123,"count":36,"max":[23],"min":[0],"type":"SCALAR"},{"bufferView":56,"componentType":5126,"count":112,"max":[0.01875000074505806,0.01875000074505806,0.01875000074505806],"min":[-0.01875000074505806,-0.01875000074505806,-0.01875000074505806],"type":"VEC3"},{"bufferView":57,"componentType":5126,"count":112,"max":[0.9238795042037964,0.9238795042037964,0.9238795042037964],"min":[-0.9238795042037964,-0.9238795042037964,-0.9238795042037964],"type":"VEC3"},{"bufferView":58,"componentType":5126,"count":112,"max":[0.859375,0.875],"min":[0.06642812490463257,0],"type":"VEC2"},{"bufferView":59,"componentType":5123,"count":144,"max":[111],"min":[0],"type":"SCALAR"}],"materials":[{"pbrMetallicRoughness":{"metallicFactor":0,"roughnessFactor":1,"baseColorTexture":{"index":0}},"alphaMode":"MASK","alphaCutoff":0.05,"doubleSided":true},{"pbrMetallicRoughness":{"metallicFactor":0,"roughnessFactor":1,"baseColorTexture":{"index":1}},"alphaMode":"MASK","alphaCutoff":0.05,"doubleSided":true}],"textures":[{"sampler":0,"source":0,"name":"polybrawl_sniper_rifle_no_recolor.png"},{"sampler":1,"source":1,"name":"polybrawl_sniper_rifle.png"}],"samplers":[{"magFilter":9728,"minFilter":9728,"wrapS":33071,"wrapT":33071},{"magFilter":9728,"minFilter":9728,"wrapS":33071,"wrapT":33071}],"images":[{"mimeType":"image/png","uri":"data:image/png;base64,"},{"mimeType":"image/png","uri":"data:image/png;base64,"}],"meshes":[{"primitives":[{"mode":4,"attributes":{"POSITION":0,"NORMAL":1,"TEXCOORD_0":2},"indices":3,"material":0}]},{"primitives":[{"mode":4,"attributes":{"POSITION":4,"NORMAL":5,"TEXCOORD_0":6},"indices":7,"material":0}]},{"primitives":[{"mode":4,"attributes":{"POSITION":8,"NORMAL":9,"TEXCOORD_0":10},"indices":11,"material":1}]},{"primitives":[{"mode":4,"attributes":{"POSITION":12,"NORMAL":13,"TEXCOORD_0":14},"indices":15,"material":1}]},{"primitives":[{"mode":4,"attributes":{"POSITION":16,"NORMAL":17,"TEXCOORD_0":18},"indices":19,"material":1}]},{"primitives":[{"mode":4,"attributes":{"POSITION":20,"NORMAL":21,"TEXCOORD_0":22},"indices":23,"material":0}]},{"primitives":[{"mode":4,"attributes":{"POSITION":24,"NORMAL":25,"TEXCOORD_0":26},"indices":27,"material":0}]},{"primitives":[{"mode":4,"attributes":{"POSITION":28,"NORMAL":29,"TEXCOORD_0":30},"indices":31,"material":0}]},{"primitives":[{"mode":4,"attributes":{"POSITION":32,"NORMAL":33,"TEXCOORD_0":34},"indices":35,"material":0}]},{"primitives":[{"mode":4,"attributes":{"POSITION":36,"NORMAL":37,"TEXCOORD_0":38},"indices":39,"material":1}]},{"primitives":[{"mode":4,"attributes":{"POSITION":40,"NORMAL":41,"TEXCOORD_0":42},"indices":43,"material":1}]},{"primitives":[{"mode":4,"attributes":{"POSITION":44,"NORMAL":45,"TEXCOORD_0":46},"indices":47,"material":0}]},{"primitives":[{"mode":4,"attributes":{"POSITION":48,"NORMAL":49,"TEXCOORD_0":50},"indices":51,"material":0}]},{"primitives":[{"mode":4,"attributes":{"POSITION":52,"NORMAL":53,"TEXCOORD_0":54},"indices":55,"material":0}]},{"primitives":[{"mode":4,"attributes":{"POSITION":56,"NORMAL":57,"TEXCOORD_0":58},"indices":59,"material":0}]}]}