{"asset":{"version":"2.0","generator":"Blockbench 5.0.7 glTF exporter"},"scenes":[{"nodes":[5],"name":"blockbench_export"}],"scene":0,"nodes":[{"rotation":[-0.7071067811865475,0,0,0.7071067811865476],"translation":[-0.125,0,0],"name":"cylinder","mesh":0},{"translation":[-0.125,0,0.21875000000000003],"name":"gun","mesh":1},{"rotation":[-0.7071067811865475,0,0,0.7071067811865476],"translation":[-0.125,0.25,-0.15624999999999992],"name":"cylinder","mesh":2},{"translation":[-0.125,0.0625,-0.19999999999999998],"name":"cuboid","mesh":3},{"translation":[-0.125,0.25,-0.6312500000000002],"name":"cuboid","mesh":4},{"translation":[0.125,-4.5102810375396984e-17,-1.0408340855860843e-17],"name":"tommy_gun","children":[0,1,2,3,4]}],"bufferViews":[{"buffer":0,"byteOffset":0,"byteLength":960,"target":34962,"byteStride":12},{"buffer":0,"byteOffset":960,"byteLength":960,"target":34962,"byteStride":12},{"buffer":0,"byteOffset":1920,"byteLength":640,"target":34962,"byteStride":8},{"buffer":0,"byteOffset":2560,"byteLength":192,"target":34963},{"buffer":0,"byteOffset":2752,"byteLength":3168,"target":34962,"byteStride":12},{"buffer":0,"byteOffset":5920,"byteLength":3168,"target":34962,"byteStride":12},{"buffer":0,"byteOffset":9088,"byteLength":2112,"target":34962,"byteStride":8},{"buffer":0,"byteOffset":11200,"byteLength":792,"target":34963},{"buffer":0,"byteOffset":11992,"byteLength":960,"target":34962,"byteStride":12},{"buffer":0,"byteOffset":12952,"byteLength":960,"target":34962,"byteStride":12},{"buffer":0,"byteOffset":13912,"byteLength":640,"target":34962,"byteStride":8},{"buffer":0,"byteOffset":14552,"byteLength":192,"target":34963},{"buffer":0,"byteOffset":14744,"byteLength":864,"target":34962,"byteStride":12},{"buffer":0,"byteOffset":15608,"byteLength":864,"target":34962,"byteStride":12},{"buffer":0,"byteOffset":16472,"byteLength":576,"target":34962,"byteStride":8},{"buffer":0,"byteOffset":17048,"byteLength":216,"target":34963},{"buffer":0,"byteOffset":17264,"byteLength":288,"target":34962,"byteStride":12},{"buffer":0,"byteOffset":17552,"byteLength":288,"target":34962,"byteStride":12},{"buffer":0,"byteOffset":17840,"byteLength":192,"target":34962,"byteStride":8},{"buffer":0,"byteOffset":18032,"byteLength":72,"target":34963}],"buffers":[{"byteLength":18104,"uri":"data:application/octet-stream;base64,"}],"accessors":[{"bufferView":0,"componentType":5126,"count":80,"max":[0.25,0.0625,0.25],"min":[-0.25,-0.0625,-0.25],"type":"VEC3"},{"bufferView":1,"componentType":5126,"count":80,"max":[1,1,1],"min":[-1,-1,-1],"type":"VEC3"},{"bufferView":2,"componentType":5126,"count":80,"max":[0.5,0.484375],"min":[0,0],"type":"VEC2"},{"bufferView":3,"componentType":5123,"count":96,"max":[79],"min":[0],"type":"SCALAR"},{"bufferView":4,"componentType":5126,"count":264,"max":[0.0625,0.3375000059604645,0.75],"min":[-0.0625,-0.125,-0.4937500059604645],"type":"VEC3"},{"bufferView":5,"componentType":5126,"count":264,"max":[1,1,1],"min":[-1,-1,-1],"type":"VEC3"},{"bufferView":6,"componentType":5126,"count":264,"max":[0.515625,0.5],"min":[0,0],"type":"VEC2"},{"bufferView":7,"componentType":5123,"count":396,"max":[263],"min":[0],"type":"SCALAR"},{"bufferView":8,"componentType":5126,"count":80,"max":[0.03125,0.5625,0.03125],"min":[-0.03125,0,-0.03125],"type":"VEC3"},{"bufferView":9,"componentType":5126,"count":80,"max":[1,1,1],"min":[-1,-1,-1],"type":"VEC3"},{"bufferView":10,"componentType":5126,"count":80,"max":[0.453125,0.53125],"min":[0,0.3125],"type":"VEC2"},{"bufferView":11,"componentType":5123,"count":96,"max":[79],"min":[0],"type":"SCALAR"},{"bufferView":12,"componentType":5126,"count":72,"max":[0.05000000074505806,0.125,0.0625],"min":[-0.05000000074505806,-0.125,-0.25],"type":"VEC3"},{"bufferView":13,"componentType":5126,"count":72,"max":[1,1,1],"min":[-1,-1,-1],"type":"VEC3"},{"bufferView":14,"componentType":5126,"count":72,"max":[0.515625,0.484375],"min":[0.265625,0],"type":"VEC2"},{"bufferView":15,"componentType":5123,"count":108,"max":[71],"min":[0],"type":"SCALAR"},{"bufferView":16,"componentType":5126,"count":24,"max":[0.012500000186264515,0.125,-0.02500000037252903],"min":[-0.012500000186264515,0,-0.0625],"type":"VEC3"},{"bufferView":17,"componentType":5126,"count":24,"max":[1,1,1],"min":[-1,-1,-1],"type":"VEC3"},{"bufferView":18,"componentType":5126,"count":24,"max":[0.515625,0.53125],"min":[0.265625,0.28125],"type":"VEC2"},{"bufferView":19,"componentType":5123,"count":36,"max":[23],"min":[0],"type":"SCALAR"}],"materials":[{"pbrMetallicRoughness":{"metallicFactor":0,"roughnessFactor":1,"baseColorTexture":{"index":0}},"alphaMode":"MASK","alphaCutoff":0.05,"doubleSided":true}],"textures":[{"sampler":0,"source":0,"name":"gun.png"}],"samplers":[{"magFilter":9728,"minFilter":9728,"wrapS":33071,"wrapT":33071}],"images":[{"mimeType":"image/png","uri":"data:image/png;base64,"}],"meshes":[{"primitives":[{"mode":4,"attributes":{"POSITION":0,"NORMAL":1,"TEXCOORD_0":2},"indices":3,"material":0}]},{"primitives":[{"mode":4,"attributes":{"POSITION":4,"NORMAL":5,"TEXCOORD_0":6},"indices":7,"material":0}]},{"primitives":[{"mode":4,"attributes":{"POSITION":8,"NORMAL":9,"TEXCOORD_0":10},"indices":11,"material":0}]},{"primitives":[{"mode":4,"attributes":{"POSITION":12,"NORMAL":13,"TEXCOORD_0":14},"indices":15,"material":0}]},{"primitives":[{"mode":4,"attributes":{"POSITION":16,"NORMAL":17,"TEXCOORD_0":18},"indices":19,"material":0}]}]}