{"asset":{"version":"2.0","generator":"Blockbench 5.0.7 glTF exporter"},"scenes":[{"nodes":[0],"name":"blockbench_export"}],"scene":0,"nodes":[{"rotation":[-0.7071067811865475,0,0,0.7071067811865476],"translation":[0,-4.5102810375396984e-17,0],"name":"tommy_gun","mesh":0}],"bufferViews":[{"buffer":0,"byteOffset":0,"byteLength":6240,"target":34962,"byteStride":12},{"buffer":0,"byteOffset":6240,"byteLength":6240,"target":34962,"byteStride":12},{"buffer":0,"byteOffset":12480,"byteLength":4160,"target":34962,"byteStride":8},{"buffer":0,"byteOffset":16640,"byteLength":1464,"target":34963}],"buffers":[{"byteLength":18104,"uri":"data:application/octet-stream;base64,"}],"accessors":[{"bufferView":0,"componentType":5126,"count":520,"max":[0.25,0.71875,0.375],"min":[-0.25,-0.96875,-0.25],"type":"VEC3"},{"bufferView":1,"componentType":5126,"count":520,"max":[1,1,1],"min":[-1,-1,-1],"type":"VEC3"},{"bufferView":2,"componentType":5126,"count":520,"max":[0.515625,0.53125],"min":[0,0],"type":"VEC2"},{"bufferView":3,"componentType":5123,"count":732,"max":[519],"min":[0],"type":"SCALAR"}],"materials":[{"pbrMetallicRoughness":{"metallicFactor":0,"roughnessFactor":1,"baseColorTexture":{"index":0}},"alphaMode":"MASK","alphaCutoff":0.05,"doubleSided":true}],"textures":[{"sampler":0,"source":0,"name":"gun.png"}],"samplers":[{"magFilter":9728,"minFilter":9728,"wrapS":33071,"wrapT":33071}],"images":[{"mimeType":"image/png","uri":"data:image/png;base64,"}],"meshes":[{"primitives":[{"mode":4,"attributes":{"POSITION":0,"NORMAL":1,"TEXCOORD_0":2},"indices":3,"material":0}]}]}