{"asset":{"version":"2.0","generator":"Blockbench 5.0.7 glTF exporter"},"scenes":[{"nodes":[19],"name":"blockbench_export"}],"scene":0,"nodes":[{"translation":[0,0.1875,0],"name":"head_tip"},{"translation":[0,0.3125,0],"name":"head","children":[0]},{"translation":[0,0.3125,0],"name":"hand_l"},{"translation":[0,0.3125,-0.0375],"name":"forearm_l","children":[2]},{"rotation":[0,0,-0.08715574274765817,0.9961946980917455],"translation":[0,0.1875,0],"name":"bicep_l","children":[3]},{"rotation":[0,0,0.8549118706729465,0.5187732581605216],"translation":[-0.0625,0.1875,0],"name":"collarbone_l","children":[4]},{"translation":[0,0.3125,0],"name":"hand_r"},{"translation":[0,0.3125,0],"name":"forearm_r","children":[6]},{"rotation":[0,0,0.08715574274765817,0.9961946980917455],"translation":[0,0.1875,-0.0375],"name":"bicep_r","children":[7]},{"rotation":[0,0,-0.8549118706729465,0.5187732581605216],"translation":[0.0625,0.1875,0],"name":"collarbone_r","children":[8]},{"translation":[0,0.25,0],"name":"chest","children":[1,5,9]},{"translation":[0,0.1875,0],"name":"stomach","children":[10]},{"rotation":[-0.6755902076156601,0,0,0.7372773368101241],"translation":[0,0.375,0],"name":"foot_l"},{"translation":[0,0.4375,0],"name":"calf_l","children":[12]},{"rotation":[0,0,0.9961946980917455,0.08715574274765836],"translation":[-0.1875,0,0],"name":"thigh_l","children":[13]},{"rotation":[-0.6755902076156601,0,0,0.7372773368101241],"translation":[0,0.375,0],"name":"foot_r"},{"translation":[0,0.4375,0],"name":"calf_r","children":[15]},{"rotation":[0,0,-0.9961946980917455,0.08715574274765836],"translation":[0.1875,0,0],"name":"thigh_r","children":[16]},{"translation":[0,0.9375,0],"name":"pelvis","children":[11,14,17]},{"name":"armature","mesh":0,"children":[18],"skin":0}],"bufferViews":[{"buffer":0,"byteOffset":0,"byteLength":7152,"target":34962,"byteStride":12},{"buffer":0,"byteOffset":7152,"byteLength":7152,"target":34962,"byteStride":12},{"buffer":0,"byteOffset":14304,"byteLength":4768,"target":34962,"byteStride":8},{"buffer":0,"byteOffset":19072,"byteLength":4768,"target":34962,"byteStride":8},{"buffer":0,"byteOffset":23840,"byteLength":9536,"target":34962,"byteStride":16},{"buffer":0,"byteOffset":33376,"byteLength":888,"target":34963},{"buffer":0,"byteOffset":34264,"byteLength":12,"target":34963},{"buffer":0,"byteOffset":34276,"byteLength":12,"target":34963},{"buffer":0,"byteOffset":34288,"byteLength":864,"target":34963},{"buffer":0,"byteOffset":35152,"byteLength":1216},{"buffer":0,"byteOffset":36368,"byteLength":12},{"buffer":0,"byteOffset":36380,"byteLength":48},{"buffer":0,"byteOffset":36428,"byteLength":12},{"buffer":0,"byteOffset":36440,"byteLength":48},{"buffer":0,"byteOffset":36488,"byteLength":8},{"buffer":0,"byteOffset":36496,"byteLength":32},{"buffer":0,"byteOffset":36528,"byteLength":8},{"buffer":0,"byteOffset":36536,"byteLength":32},{"buffer":0,"byteOffset":36568,"byteLength":8},{"buffer":0,"byteOffset":36576,"byteLength":32},{"buffer":0,"byteOffset":36608,"byteLength":8},{"buffer":0,"byteOffset":36616,"byteLength":32},{"buffer":0,"byteOffset":36648,"byteLength":8},{"buffer":0,"byteOffset":36656,"byteLength":32},{"buffer":0,"byteOffset":36688,"byteLength":8},{"buffer":0,"byteOffset":36696,"byteLength":32},{"buffer":0,"byteOffset":36728,"byteLength":8},{"buffer":0,"byteOffset":36736,"byteLength":32},{"buffer":0,"byteOffset":36768,"byteLength":8},{"buffer":0,"byteOffset":36776,"byteLength":32},{"buffer":0,"byteOffset":36808,"byteLength":8},{"buffer":0,"byteOffset":36816,"byteLength":32},{"buffer":0,"byteOffset":36848,"byteLength":44},{"buffer":0,"byteOffset":36892,"byteLength":176},{"buffer":0,"byteOffset":37068,"byteLength":4},{"buffer":0,"byteOffset":37072,"byteLength":16},{"buffer":0,"byteOffset":37088,"byteLength":4},{"buffer":0,"byteOffset":37092,"byteLength":16},{"buffer":0,"byteOffset":37108,"byteLength":4},{"buffer":0,"byteOffset":37112,"byteLength":16},{"buffer":0,"byteOffset":37128,"byteLength":4},{"buffer":0,"byteOffset":37132,"byteLength":16},{"buffer":0,"byteOffset":37148,"byteLength":4},{"buffer":0,"byteOffset":37152,"byteLength":16},{"buffer":0,"byteOffset":37168,"byteLength":4},{"buffer":0,"byteOffset":37172,"byteLength":16},{"buffer":0,"byteOffset":37188,"byteLength":4},{"buffer":0,"byteOffset":37192,"byteLength":16},{"buffer":0,"byteOffset":37208,"byteLength":4},{"buffer":0,"byteOffset":37212,"byteLength":16},{"buffer":0,"byteOffset":37228,"byteLength":4},{"buffer":0,"byteOffset":37232,"byteLength":16},{"buffer":0,"byteOffset":37248,"byteLength":4},{"buffer":0,"byteOffset":37252,"byteLength":16},{"buffer":0,"byteOffset":37268,"byteLength":4},{"buffer":0,"byteOffset":37272,"byteLength":16},{"buffer":0,"byteOffset":37288,"byteLength":4},{"buffer":0,"byteOffset":37292,"byteLength":16},{"buffer":0,"byteOffset":37308,"byteLength":4},{"buffer":0,"byteOffset":37312,"byteLength":16}],"buffers":[{"byteLength":37328,"uri":"data:application/octet-stream;base64,"}],"accessors":[{"bufferView":0,"componentType":5126,"count":596,"max":[0.8582975268363953,2.53125,0.375],"min":[-0.8582975268363953,0.11898064613342285,-0.46875],"type":"VEC3"},{"bufferView":1,"componentType":5126,"count":596,"max":[1,1,1],"min":[-1,-1,-1],"type":"VEC3"},{"bufferView":2,"componentType":5126,"count":596,"max":[0.890625,0.9375],"min":[0,0],"type":"VEC2"},{"bufferView":3,"componentType":5123,"count":596,"max":[17,9,0,0],"min":[1,0,0,0],"type":"VEC4"},{"bufferView":4,"componentType":5126,"count":596,"max":[1,0.5,0,0],"min":[0.5,0,0,0],"type":"VEC4"},{"bufferView":5,"componentType":5123,"count":444,"max":[299],"min":[0],"type":"SCALAR"},{"bufferView":6,"componentType":5123,"count":6,"max":[303],"min":[300],"type":"SCALAR"},{"bufferView":7,"componentType":5123,"count":6,"max":[307],"min":[304],"type":"SCALAR"},{"bufferView":8,"componentType":5123,"count":432,"max":[595],"min":[308],"type":"SCALAR"},{"bufferView":9,"componentType":5126,"count":19,"max":[1,0.9537169337272644,0.17298738658428192,0,0.9537169337272644,1,0,0,1.734723475976807e-18,0,1,0,1.4764177799224854,0.890698254108429,0.07790067046880722,1],"min":[-0.9848077297210693,-0.9537169337272644,-0.17298738658428192,0,-0.9537169337272644,-0.9848077297210693,-0.981060266494751,0,-1.734723475976807e-18,-0.9961947202682495,0.08715574443340302,0,-1.4764177799224854,-1.875,0,1],"type":"MAT4"},{"bufferView":10,"componentType":5126,"count":3,"max":[1.6666699647903442],"min":[0],"type":"SCALAR"},{"bufferView":11,"componentType":5126,"count":3,"max":[0,0.18471135199069977,0,1],"min":[-0.1603700965642929,0,-0.1736481785774231,0.9693995714187622],"type":"VEC4"},{"bufferView":12,"componentType":5126,"count":3,"max":[1.6666699647903442],"min":[0],"type":"SCALAR"},{"bufferView":13,"componentType":5126,"count":3,"max":[0.27723079919815063,0,0,1],"min":[0,0,0,0.9608033299446106],"type":"VEC4"},{"bufferView":14,"componentType":5126,"count":2,"max":[1.6666699647903442],"min":[0],"type":"SCALAR"},{"bufferView":15,"componentType":5126,"count":2,"max":[0,0,0.15212339162826538,1],"min":[0,0,0,0.9883615374565125],"type":"VEC4"},{"bufferView":16,"componentType":5126,"count":2,"max":[1.6666699647903442],"min":[0],"type":"SCALAR"},{"bufferView":17,"componentType":5126,"count":2,"max":[0,0.013258426450192928,-0.08614138513803482,0.9961947202682495],"min":[-0.1515445113182068,0,-0.08715574443340302,0.9846004843711853],"type":"VEC4"},{"bufferView":18,"componentType":5126,"count":2,"max":[1.6666699647903442],"min":[0],"type":"SCALAR"},{"bufferView":19,"componentType":5126,"count":2,"max":[0.25783416628837585,0.022557565942406654,0.08715574443340302,0.9961947202682495],"min":[0,0,0.08418598026037216,0.9622501730918884],"type":"VEC4"},{"bufferView":20,"componentType":5126,"count":2,"max":[1.6666699647903442],"min":[0],"type":"SCALAR"},{"bufferView":21,"componentType":5126,"count":2,"max":[0,0,0,1],"min":[-0.3420201539993286,0,0,0.9396926164627075],"type":"VEC4"},{"bufferView":22,"componentType":5126,"count":2,"max":[1.6666699647903442],"min":[0],"type":"SCALAR"},{"bufferView":23,"componentType":5126,"count":2,"max":[0,0,0,1],"min":[-0.258819043636322,0,0,0.9659258127212524],"type":"VEC4"},{"bufferView":24,"componentType":5126,"count":2,"max":[1.9583300352096558],"min":[0],"type":"SCALAR"},{"bufferView":25,"componentType":5126,"count":2,"max":[0.01886395551264286,0.21561600267887115,0.9961947202682495,0.08715574443340302],"min":[0,0,0.9725809097290039,0.0850898027420044],"type":"VEC4"},{"bufferView":26,"componentType":5126,"count":2,"max":[0.958329975605011],"min":[0],"type":"SCALAR"},{"bufferView":27,"componentType":5126,"count":2,"max":[0.4023633599281311,0.01756756380200386,0,1],"min":[0,0,-0.03992532566189766,0.9144403338432312],"type":"VEC4"},{"bufferView":28,"componentType":5126,"count":2,"max":[1.9583300352096558],"min":[0],"type":"SCALAR"},{"bufferView":29,"componentType":5126,"count":2,"max":[0,0.3610588610172272,-0.9284613132476807,0.08715574443340302],"min":[-0.03158855810761452,0,-0.9961947202682495,0.08122983574867249],"type":"VEC4"},{"bufferView":30,"componentType":5126,"count":2,"max":[0.958329975605011],"min":[0],"type":"SCALAR"},{"bufferView":31,"componentType":5126,"count":2,"max":[0.3211335241794586,0,0.041304513812065125,1],"min":[0,-0.014020992442965508,0,0.9460288882255554],"type":"VEC4"},{"bufferView":32,"componentType":5126,"count":11,"max":[10],"min":[0],"type":"SCALAR"},{"bufferView":33,"componentType":5126,"count":11,"max":[0.026176948100328445,0.02181488461792469,0.0005710471305064857,1],"min":[0,-0.021807409822940826,-0.0005710471305064857,0.9994194507598877],"type":"VEC4"},{"bufferView":34,"componentType":5126,"count":1,"max":[0],"min":[0],"type":"SCALAR"},{"bufferView":35,"componentType":5126,"count":1,"max":[0,0,0.8064445853233337,0.591309666633606],"min":[0,0,0.8064445853233337,0.591309666633606],"type":"VEC4"},{"bufferView":36,"componentType":5126,"count":1,"max":[0],"min":[0],"type":"SCALAR"},{"bufferView":37,"componentType":5126,"count":1,"max":[0,0,0.4809887707233429,0.8767267465591431],"min":[0,0,0.4809887707233429,0.8767267465591431],"type":"VEC4"},{"bufferView":38,"componentType":5126,"count":1,"max":[0],"min":[0],"type":"SCALAR"},{"bufferView":39,"componentType":5126,"count":1,"max":[0,0,-0.8064445853233337,0.591309666633606],"min":[0,0,-0.8064445853233337,0.591309666633606],"type":"VEC4"},{"bufferView":40,"componentType":5126,"count":1,"max":[0],"min":[0],"type":"SCALAR"},{"bufferView":41,"componentType":5126,"count":1,"max":[0,0,-0.4809887707233429,0.8767267465591431],"min":[0,0,-0.4809887707233429,0.8767267465591431],"type":"VEC4"},{"bufferView":42,"componentType":5126,"count":1,"max":[0],"min":[0],"type":"SCALAR"},{"bufferView":43,"componentType":5126,"count":1,"max":[0,0,0.9997619986534119,0.02181488461792469],"min":[0,0,0.9997619986534119,0.02181488461792469],"type":"VEC4"},{"bufferView":44,"componentType":5126,"count":1,"max":[0],"min":[0],"type":"SCALAR"},{"bufferView":45,"componentType":5126,"count":1,"max":[0,0,-0.9997619986534119,0.02181488461792469],"min":[0,0,-0.9997619986534119,0.02181488461792469],"type":"VEC4"},{"bufferView":46,"componentType":5126,"count":1,"max":[0],"min":[0],"type":"SCALAR"},{"bufferView":47,"componentType":5126,"count":1,"max":[0,0,0,1],"min":[0,0,0,1],"type":"VEC4"},{"bufferView":48,"componentType":5126,"count":1,"max":[0],"min":[0],"type":"SCALAR"},{"bufferView":49,"componentType":5126,"count":1,"max":[0,0,0.8064445853233337,0.591309666633606],"min":[0,0,0.8064445853233337,0.591309666633606],"type":"VEC4"},{"bufferView":50,"componentType":5126,"count":1,"max":[0],"min":[0],"type":"SCALAR"},{"bufferView":51,"componentType":5126,"count":1,"max":[0,0,0.4809887707233429,0.8767267465591431],"min":[0,0,0.4809887707233429,0.8767267465591431],"type":"VEC4"},{"bufferView":52,"componentType":5126,"count":1,"max":[0],"min":[0],"type":"SCALAR"},{"bufferView":53,"componentType":5126,"count":1,"max":[0,0,-0.8064445853233337,0.591309666633606],"min":[0,0,-0.8064445853233337,0.591309666633606],"type":"VEC4"},{"bufferView":54,"componentType":5126,"count":1,"max":[0],"min":[0],"type":"SCALAR"},{"bufferView":55,"componentType":5126,"count":1,"max":[0,0,-0.4809887707233429,0.8767267465591431],"min":[0,0,-0.4809887707233429,0.8767267465591431],"type":"VEC4"},{"bufferView":56,"componentType":5126,"count":1,"max":[0],"min":[0],"type":"SCALAR"},{"bufferView":57,"componentType":5126,"count":1,"max":[0,0,0.9997619986534119,0.02181488461792469],"min":[0,0,0.9997619986534119,0.02181488461792469],"type":"VEC4"},{"bufferView":58,"componentType":5126,"count":1,"max":[0],"min":[0],"type":"SCALAR"},{"bufferView":59,"componentType":5126,"count":1,"max":[0,0,-0.9997619986534119,0.02181488461792469],"min":[0,0,-0.9997619986534119,0.02181488461792469],"type":"VEC4"}],"materials":[{"pbrMetallicRoughness":{"metallicFactor":0,"roughnessFactor":1,"baseColorTexture":{"index":0}},"alphaMode":"MASK","alphaCutoff":0.05,"doubleSided":true},{"pbrMetallicRoughness":{"metallicFactor":0,"roughnessFactor":1,"baseColorTexture":{"index":1}},"alphaMode":"MASK","alphaCutoff":0.05,"doubleSided":true},{"pbrMetallicRoughness":{"metallicFactor":0,"roughnessFactor":1,"baseColorTexture":{"index":2}},"alphaMode":"MASK","alphaCutoff":0.05,"doubleSided":true},{"pbrMetallicRoughness":{"metallicFactor":0,"roughnessFactor":1,"baseColorTexture":{"index":3}},"alphaMode":"MASK","alphaCutoff":0.05,"doubleSided":true}],"textures":[{"sampler":0,"source":0,"name":"hat"},{"sampler":1,"source":1,"name":"eye"},{"sampler":2,"source":2,"name":"eye"},{"sampler":3,"source":3,"name":"texture.png"}],"samplers":[{"magFilter":9728,"minFilter":9728,"wrapS":33071,"wrapT":33071},{"magFilter":9728,"minFilter":9728,"wrapS":33071,"wrapT":33071},{"magFilter":9728,"minFilter":9728,"wrapS":33071,"wrapT":33071},{"magFilter":9728,"minFilter":9728,"wrapS":33071,"wrapT":33071}],"images":[{"mimeType":"image/png","uri":"data:image/png;base64,"},{"mimeType":"image/png","uri":"data:image/png;base64,"},{"mimeType":"image/png","uri":"data:image/png;base64,"},{"mimeType":"image/png","uri":"data:image/png;base64,"}],"meshes":[{"primitives":[{"mode":4,"attributes":{"POSITION":0,"NORMAL":1,"TEXCOORD_0":2,"JOINTS_0":3,"WEIGHTS_0":4},"indices":5,"material":0},{"mode":4,"attributes":{"POSITION":0,"NORMAL":1,"TEXCOORD_0":2,"JOINTS_0":3,"WEIGHTS_0":4},"indices":6,"material":1},{"mode":4,"attributes":{"POSITION":0,"NORMAL":1,"TEXCOORD_0":2,"JOINTS_0":3,"WEIGHTS_0":4},"indices":7,"material":2},{"mode":4,"attributes":{"POSITION":0,"NORMAL":1,"TEXCOORD_0":2,"JOINTS_0":3,"WEIGHTS_0":4},"indices":8,"material":3}]}],"skins":[{"inverseBindMatrices":9,"joints":[18,11,10,1,0,5,4,3,2,9,8,7,6,14,13,12,17,16,15],"skeleton":18}],"animations":[{"name":"test_move_all_limbs","samplers":[{"input":10,"output":11,"interpolation":"LINEAR"},{"input":12,"output":13,"interpolation":"LINEAR"},{"input":14,"output":15,"interpolation":"LINEAR"},{"input":16,"output":17,"interpolation":"LINEAR"},{"input":18,"output":19,"interpolation":"LINEAR"},{"input":20,"output":21,"interpolation":"LINEAR"},{"input":22,"output":23,"interpolation":"LINEAR"},{"input":24,"output":25,"interpolation":"LINEAR"},{"input":26,"output":27,"interpolation":"LINEAR"},{"input":28,"output":29,"interpolation":"LINEAR"},{"input":30,"output":31,"interpolation":"LINEAR"}],"channels":[{"sampler":0,"target":{"node":1,"path":"rotation"}},{"sampler":1,"target":{"node":11,"path":"rotation"}},{"sampler":2,"target":{"node":10,"path":"rotation"}},{"sampler":3,"target":{"node":4,"path":"rotation"}},{"sampler":4,"target":{"node":8,"path":"rotation"}},{"sampler":5,"target":{"node":3,"path":"rotation"}},{"sampler":6,"target":{"node":7,"path":"rotation"}},{"sampler":7,"target":{"node":14,"path":"rotation"}},{"sampler":8,"target":{"node":13,"path":"rotation"}},{"sampler":9,"target":{"node":17,"path":"rotation"}},{"sampler":10,"target":{"node":16,"path":"rotation"}}]},{"name":"idle","samplers":[{"input":32,"output":33,"interpolation":"LINEAR"},{"input":34,"output":35,"interpolation":"LINEAR"},{"input":36,"output":37,"interpolation":"LINEAR"},{"input":38,"output":39,"interpolation":"LINEAR"},{"input":40,"output":41,"interpolation":"LINEAR"},{"input":42,"output":43,"interpolation":"LINEAR"},{"input":44,"output":45,"interpolation":"LINEAR"}],"channels":[{"sampler":0,"target":{"node":11,"path":"rotation"}},{"sampler":1,"target":{"node":5,"path":"rotation"}},{"sampler":2,"target":{"node":4,"path":"rotation"}},{"sampler":3,"target":{"node":9,"path":"rotation"}},{"sampler":4,"target":{"node":8,"path":"rotation"}},{"sampler":5,"target":{"node":14,"path":"rotation"}},{"sampler":6,"target":{"node":17,"path":"rotation"}}]},{"name":"walk","samplers":[{"input":46,"output":47,"interpolation":"LINEAR"},{"input":48,"output":49,"interpolation":"LINEAR"},{"input":50,"output":51,"interpolation":"LINEAR"},{"input":52,"output":53,"interpolation":"LINEAR"},{"input":54,"output":55,"interpolation":"LINEAR"},{"input":56,"output":57,"interpolation":"LINEAR"},{"input":58,"output":59,"interpolation":"LINEAR"}],"channels":[{"sampler":0,"target":{"node":11,"path":"rotation"}},{"sampler":1,"target":{"node":5,"path":"rotation"}},{"sampler":2,"target":{"node":4,"path":"rotation"}},{"sampler":3,"target":{"node":9,"path":"rotation"}},{"sampler":4,"target":{"node":8,"path":"rotation"}},{"sampler":5,"target":{"node":14,"path":"rotation"}},{"sampler":6,"target":{"node":17,"path":"rotation"}}]}]}