{"asset":{"version":"2.0","generator":"Blockbench 5.0.7 glTF exporter"},"scenes":[{"nodes":[0],"name":"blockbench_export"}],"scene":0,"nodes":[{"translation":[0,0.40625,0],"name":"helmet","mesh":0}],"bufferViews":[{"buffer":0,"byteOffset":0,"byteLength":2496,"target":34962,"byteStride":12},{"buffer":0,"byteOffset":2496,"byteLength":2496,"target":34962,"byteStride":12},{"buffer":0,"byteOffset":4992,"byteLength":1664,"target":34962,"byteStride":8},{"buffer":0,"byteOffset":6656,"byteLength":600,"target":34963}],"buffers":[{"byteLength":7256,"uri":"data:application/octet-stream;base64,"}],"accessors":[{"bufferView":0,"componentType":5126,"count":208,"max":[0.375,0.3125,0.375],"min":[-0.375,-0.25,-0.375],"type":"VEC3"},{"bufferView":1,"componentType":5126,"count":208,"max":[1,1,1],"min":[-1,-1,-1],"type":"VEC3"},{"bufferView":2,"componentType":5126,"count":208,"max":[0.59375,0.484375],"min":[0,0],"type":"VEC2"},{"bufferView":3,"componentType":5123,"count":300,"max":[207],"min":[0],"type":"SCALAR"}],"materials":[{"pbrMetallicRoughness":{"metallicFactor":0,"roughnessFactor":1,"baseColorTexture":{"index":0}},"alphaMode":"MASK","alphaCutoff":0.05,"doubleSided":true}],"textures":[{"sampler":0,"source":0,"name":"helmet"}],"samplers":[{"magFilter":9728,"minFilter":9728,"wrapS":33071,"wrapT":33071}],"images":[{"mimeType":"image/png","uri":"data:image/png;base64,"}],"meshes":[{"primitives":[{"mode":4,"attributes":{"POSITION":0,"NORMAL":1,"TEXCOORD_0":2},"indices":3,"material":0}]}]}