{"asset":{"version":"2.0","generator":"Blockbench 5.0.7 glTF exporter"},"scenes":[{"nodes":[19],"name":"blockbench_export"}],"scene":0,"nodes":[{"translation":[0,0.1875,0],"name":"head_tip"},{"translation":[0,0.3125,0],"name":"head","children":[0]},{"translation":[0,0.3125,0],"name":"hand_l"},{"translation":[0,0.3125,-0.0375],"name":"forearm_l","children":[2]},{"rotation":[0,0,-0.08715574274765817,0.9961946980917455],"translation":[0,0.1875,0],"name":"bicep_l","children":[3]},{"rotation":[0,0,0.8549118706729465,0.5187732581605216],"translation":[-0.0625,0.1875,0],"name":"collarbone_l","children":[4]},{"translation":[0,0.3125,0],"name":"hand_r"},{"translation":[0,0.3125,0],"name":"forearm_r","children":[6]},{"rotation":[0,0,0.08715574274765817,0.9961946980917455],"translation":[0,0.1875,-0.0375],"name":"bicep_r","children":[7]},{"rotation":[0,0,-0.8549118706729465,0.5187732581605216],"translation":[0.0625,0.1875,0],"name":"collarbone_r","children":[8]},{"translation":[0,0.25,0],"name":"chest","children":[1,5,9]},{"translation":[0,0.1875,0],"name":"stomach","children":[10]},{"rotation":[-0.6755902076156601,0,0,0.7372773368101241],"translation":[0,0.375,0],"name":"foot_l"},{"translation":[0,0.4375,0],"name":"calf_l","children":[12]},{"rotation":[0,0,0.9961946980917455,0.08715574274765836],"translation":[-0.1875,0,0],"name":"thigh_l","children":[13]},{"rotation":[-0.6755902076156601,0,0,0.7372773368101241],"translation":[0,0.375,0],"name":"foot_r"},{"translation":[0,0.4375,0],"name":"calf_r","children":[15]},{"rotation":[0,0,-0.9961946980917455,0.08715574274765836],"translation":[0.1875,0,0],"name":"thigh_r","children":[16]},{"translation":[0,0.9375,0],"name":"pelvis","children":[11,14,17]},{"name":"armature","mesh":0,"children":[18],"skin":0}],"bufferViews":[{"buffer":0,"byteOffset":0,"byteLength":3456,"target":34962,"byteStride":12},{"buffer":0,"byteOffset":3456,"byteLength":3456,"target":34962,"byteStride":12},{"buffer":0,"byteOffset":6912,"byteLength":2304,"target":34962,"byteStride":8},{"buffer":0,"byteOffset":9216,"byteLength":2304,"target":34962,"byteStride":8},{"buffer":0,"byteOffset":11520,"byteLength":4608,"target":34962,"byteStride":16},{"buffer":0,"byteOffset":16128,"byteLength":120,"target":34963},{"buffer":0,"byteOffset":16248,"byteLength":168,"target":34963},{"buffer":0,"byteOffset":16416,"byteLength":336,"target":34963},{"buffer":0,"byteOffset":16752,"byteLength":168,"target":34963},{"buffer":0,"byteOffset":16920,"byteLength":72,"target":34963},{"buffer":0,"byteOffset":16992,"byteLength":1216},{"buffer":0,"byteOffset":18208,"byteLength":12},{"buffer":0,"byteOffset":18220,"byteLength":48},{"buffer":0,"byteOffset":18268,"byteLength":12},{"buffer":0,"byteOffset":18280,"byteLength":48},{"buffer":0,"byteOffset":18328,"byteLength":8},{"buffer":0,"byteOffset":18336,"byteLength":32},{"buffer":0,"byteOffset":18368,"byteLength":8},{"buffer":0,"byteOffset":18376,"byteLength":32},{"buffer":0,"byteOffset":18408,"byteLength":8},{"buffer":0,"byteOffset":18416,"byteLength":32},{"buffer":0,"byteOffset":18448,"byteLength":8},{"buffer":0,"byteOffset":18456,"byteLength":32},{"buffer":0,"byteOffset":18488,"byteLength":8},{"buffer":0,"byteOffset":18496,"byteLength":32},{"buffer":0,"byteOffset":18528,"byteLength":8},{"buffer":0,"byteOffset":18536,"byteLength":32},{"buffer":0,"byteOffset":18568,"byteLength":8},{"buffer":0,"byteOffset":18576,"byteLength":32},{"buffer":0,"byteOffset":18608,"byteLength":8},{"buffer":0,"byteOffset":18616,"byteLength":32},{"buffer":0,"byteOffset":18648,"byteLength":8},{"buffer":0,"byteOffset":18656,"byteLength":32}],"buffers":[{"byteLength":18688,"uri":"data:application/octet-stream;base64,"}],"accessors":[{"bufferView":0,"componentType":5126,"count":288,"max":[0.8582972884178162,2.3125,0.3125],"min":[-0.8582972884178162,0.1189805120229721,-0.3125],"type":"VEC3"},{"bufferView":1,"componentType":5126,"count":288,"max":[1,1,1],"min":[-1,-1,-1],"type":"VEC3"},{"bufferView":2,"componentType":5126,"count":288,"max":[1,1],"min":[0,0],"type":"VEC2"},{"bufferView":3,"componentType":5123,"count":288,"max":[17,9,0,0],"min":[0,0,0,0],"type":"VEC4"},{"bufferView":4,"componentType":5126,"count":288,"max":[1,0.5,0,0],"min":[0.5,0,0,0],"type":"VEC4"},{"bufferView":5,"componentType":5123,"count":60,"max":[39],"min":[0],"type":"SCALAR"},{"bufferView":6,"componentType":5123,"count":84,"max":[95],"min":[40],"type":"SCALAR"},{"bufferView":7,"componentType":5123,"count":168,"max":[207],"min":[96],"type":"SCALAR"},{"bufferView":8,"componentType":5123,"count":84,"max":[263],"min":[208],"type":"SCALAR"},{"bufferView":9,"componentType":5123,"count":36,"max":[287],"min":[264],"type":"SCALAR"},{"bufferView":10,"componentType":5126,"count":19,"max":[1,0.9537169337272644,0.17298738658428192,0,0.9537169337272644,1,0,0,1.734723475976807e-18,0,1,0,1.4764177799224854,0.890698254108429,0.07790067046880722,1],"min":[-0.9848077297210693,-0.9537169337272644,-0.17298738658428192,0,-0.9537169337272644,-0.9848077297210693,-0.981060266494751,0,-1.734723475976807e-18,-0.9961947202682495,0.08715574443340302,0,-1.4764177799224854,-1.875,0,1],"type":"MAT4"},{"bufferView":11,"componentType":5126,"count":3,"max":[1.6666699647903442],"min":[0],"type":"SCALAR"},{"bufferView":12,"componentType":5126,"count":3,"max":[0,0.18471135199069977,0,1],"min":[-0.1603700965642929,0,-0.1736481785774231,0.9693995714187622],"type":"VEC4"},{"bufferView":13,"componentType":5126,"count":3,"max":[1.6666699647903442],"min":[0],"type":"SCALAR"},{"bufferView":14,"componentType":5126,"count":3,"max":[0.27723079919815063,0,0,1],"min":[0,0,0,0.9608033299446106],"type":"VEC4"},{"bufferView":15,"componentType":5126,"count":2,"max":[1.6666699647903442],"min":[0],"type":"SCALAR"},{"bufferView":16,"componentType":5126,"count":2,"max":[0,0,0.15212339162826538,1],"min":[0,0,0,0.9883615374565125],"type":"VEC4"},{"bufferView":17,"componentType":5126,"count":2,"max":[1.6666699647903442],"min":[0],"type":"SCALAR"},{"bufferView":18,"componentType":5126,"count":2,"max":[0,0.013258426450192928,-0.08614138513803482,0.9961947202682495],"min":[-0.1515445113182068,0,-0.08715574443340302,0.9846004843711853],"type":"VEC4"},{"bufferView":19,"componentType":5126,"count":2,"max":[1.6666699647903442],"min":[0],"type":"SCALAR"},{"bufferView":20,"componentType":5126,"count":2,"max":[0.25783416628837585,0.022557565942406654,0.08715574443340302,0.9961947202682495],"min":[0,0,0.08418598026037216,0.9622501730918884],"type":"VEC4"},{"bufferView":21,"componentType":5126,"count":2,"max":[1.6666699647903442],"min":[0],"type":"SCALAR"},{"bufferView":22,"componentType":5126,"count":2,"max":[0,0,0,1],"min":[-0.3420201539993286,0,0,0.9396926164627075],"type":"VEC4"},{"bufferView":23,"componentType":5126,"count":2,"max":[1.6666699647903442],"min":[0],"type":"SCALAR"},{"bufferView":24,"componentType":5126,"count":2,"max":[0,0,0,1],"min":[-0.258819043636322,0,0,0.9659258127212524],"type":"VEC4"},{"bufferView":25,"componentType":5126,"count":2,"max":[1.9583300352096558],"min":[0],"type":"SCALAR"},{"bufferView":26,"componentType":5126,"count":2,"max":[0.01886395551264286,0.21561600267887115,0.9961947202682495,0.08715574443340302],"min":[0,0,0.9725809097290039,0.0850898027420044],"type":"VEC4"},{"bufferView":27,"componentType":5126,"count":2,"max":[0.958329975605011],"min":[0],"type":"SCALAR"},{"bufferView":28,"componentType":5126,"count":2,"max":[0.4023633599281311,0.01756756380200386,0,1],"min":[0,0,-0.03992532566189766,0.9144403338432312],"type":"VEC4"},{"bufferView":29,"componentType":5126,"count":2,"max":[1.9583300352096558],"min":[0],"type":"SCALAR"},{"bufferView":30,"componentType":5126,"count":2,"max":[0,0.3610588610172272,-0.9284613132476807,0.08715574443340302],"min":[-0.03158855810761452,0,-0.9961947202682495,0.08122983574867249],"type":"VEC4"},{"bufferView":31,"componentType":5126,"count":2,"max":[0.958329975605011],"min":[0],"type":"SCALAR"},{"bufferView":32,"componentType":5126,"count":2,"max":[0.3211335241794586,0,0.041304513812065125,1],"min":[0,-0.014020992442965508,0,0.9460288882255554],"type":"VEC4"}],"materials":[{"pbrMetallicRoughness":{"metallicFactor":0,"roughnessFactor":1,"baseColorTexture":{"index":0}},"alphaMode":"MASK","alphaCutoff":0.05,"doubleSided":true},{"pbrMetallicRoughness":{"metallicFactor":0,"roughnessFactor":1,"baseColorTexture":{"index":1}},"alphaMode":"MASK","alphaCutoff":0.05,"doubleSided":true},{"pbrMetallicRoughness":{"metallicFactor":0,"roughnessFactor":1,"baseColorTexture":{"index":2}},"alphaMode":"MASK","alphaCutoff":0.05,"doubleSided":true},{"pbrMetallicRoughness":{"metallicFactor":0,"roughnessFactor":1,"baseColorTexture":{"index":3}},"alphaMode":"MASK","alphaCutoff":0.05,"doubleSided":true}],"textures":[{"sampler":0,"source":0,"name":"torso.png"},{"sampler":1,"source":1,"name":"arm.png"},{"sampler":2,"source":2,"name":"leg.png"},{"sampler":3,"source":3,"name":"head.png"}],"samplers":[{"magFilter":9728,"minFilter":9728,"wrapS":33071,"wrapT":33071},{"magFilter":9728,"minFilter":9728,"wrapS":33071,"wrapT":33071},{"magFilter":9728,"minFilter":9728,"wrapS":33071,"wrapT":33071},{"magFilter":9728,"minFilter":9728,"wrapS":33071,"wrapT":33071}],"images":[{"mimeType":"image/png","uri":"data:image/png;base64,"},{"mimeType":"image/png","uri":"data:image/png;base64,"},{"mimeType":"image/png","uri":"data:image/png;base64,"},{"mimeType":"image/png","uri":"data:image/png;base64,"}],"meshes":[{"primitives":[{"mode":4,"attributes":{"POSITION":0,"NORMAL":1,"TEXCOORD_0":2,"JOINTS_0":3,"WEIGHTS_0":4},"indices":5,"material":0},{"mode":4,"attributes":{"POSITION":0,"NORMAL":1,"TEXCOORD_0":2,"JOINTS_0":3,"WEIGHTS_0":4},"indices":6,"material":1},{"mode":4,"attributes":{"POSITION":0,"NORMAL":1,"TEXCOORD_0":2,"JOINTS_0":3,"WEIGHTS_0":4},"indices":7,"material":2},{"mode":4,"attributes":{"POSITION":0,"NORMAL":1,"TEXCOORD_0":2,"JOINTS_0":3,"WEIGHTS_0":4},"indices":8,"material":1},{"mode":4,"attributes":{"POSITION":0,"NORMAL":1,"TEXCOORD_0":2,"JOINTS_0":3,"WEIGHTS_0":4},"indices":9,"material":3}]}],"skins":[{"inverseBindMatrices":10,"joints":[18,11,10,1,0,5,4,3,2,9,8,7,6,14,13,12,17,16,15],"skeleton":18}],"animations":[{"name":"test_move_all_limbs","samplers":[{"input":11,"output":12,"interpolation":"LINEAR"},{"input":13,"output":14,"interpolation":"LINEAR"},{"input":15,"output":16,"interpolation":"LINEAR"},{"input":17,"output":18,"interpolation":"LINEAR"},{"input":19,"output":20,"interpolation":"LINEAR"},{"input":21,"output":22,"interpolation":"LINEAR"},{"input":23,"output":24,"interpolation":"LINEAR"},{"input":25,"output":26,"interpolation":"LINEAR"},{"input":27,"output":28,"interpolation":"LINEAR"},{"input":29,"output":30,"interpolation":"LINEAR"},{"input":31,"output":32,"interpolation":"LINEAR"}],"channels":[{"sampler":0,"target":{"node":1,"path":"rotation"}},{"sampler":1,"target":{"node":11,"path":"rotation"}},{"sampler":2,"target":{"node":10,"path":"rotation"}},{"sampler":3,"target":{"node":4,"path":"rotation"}},{"sampler":4,"target":{"node":8,"path":"rotation"}},{"sampler":5,"target":{"node":3,"path":"rotation"}},{"sampler":6,"target":{"node":7,"path":"rotation"}},{"sampler":7,"target":{"node":14,"path":"rotation"}},{"sampler":8,"target":{"node":13,"path":"rotation"}},{"sampler":9,"target":{"node":17,"path":"rotation"}},{"sampler":10,"target":{"node":16,"path":"rotation"}}]}]}