{"asset":{"version":"2.0","generator":"Blockbench 5.0.7 glTF exporter"},"scenes":[{"nodes":[19],"name":"blockbench_export"}],"scene":0,"nodes":[{"translation":[0,0.1875,0],"name":"head_tip"},{"translation":[0,0.3125,0],"name":"head","children":[0]},{"translation":[0,0.3125,0],"name":"hand_l"},{"translation":[0,0.3125,-0.0375],"name":"forearm_l","children":[2]},{"rotation":[0,0,-0.08715574274765817,0.9961946980917455],"translation":[0,0.1875,0],"name":"bicep_l","children":[3]},{"rotation":[0,0,0.8549118706729465,0.5187732581605216],"translation":[-0.0625,0.1875,0],"name":"collarbone_l","children":[4]},{"translation":[0,0.3125,0],"name":"hand_r"},{"translation":[0,0.3125,0],"name":"forearm_r","children":[6]},{"rotation":[0,0,0.08715574274765817,0.9961946980917455],"translation":[0,0.1875,-0.0375],"name":"bicep_r","children":[7]},{"rotation":[0,0,-0.8549118706729465,0.5187732581605216],"translation":[0.0625,0.1875,0],"name":"collarbone_r","children":[8]},{"translation":[0,0.25,0],"name":"chest","children":[1,5,9]},{"translation":[0,0.1875,0],"name":"spine","children":[10]},{"rotation":[-0.6755902076156601,0,0,0.7372773368101241],"translation":[0,0.375,0],"name":"foot_l"},{"translation":[0,0.4375,0],"name":"calf_l","children":[12]},{"rotation":[0,0,0.9961946980917455,0.08715574274765836],"translation":[-0.1875,0,0],"name":"thigh_l","children":[13]},{"rotation":[-0.6755902076156601,0,0,0.7372773368101241],"translation":[0,0.375,0],"name":"foot_r"},{"translation":[0,0.4375,0],"name":"calf_r","children":[15]},{"rotation":[0,0,-0.9961946980917455,0.08715574274765836],"translation":[0.1875,0,0],"name":"thigh_r","children":[16]},{"translation":[0,0.8125,0],"name":"pelvis","children":[11,14,17]},{"name":"armature","mesh":0,"children":[18],"skin":0}],"bufferViews":[{"buffer":0,"byteOffset":0,"byteLength":1056,"target":34962,"byteStride":12},{"buffer":0,"byteOffset":1056,"byteLength":1056,"target":34962,"byteStride":12},{"buffer":0,"byteOffset":2112,"byteLength":704,"target":34962,"byteStride":8},{"buffer":0,"byteOffset":2816,"byteLength":704,"target":34962,"byteStride":8},{"buffer":0,"byteOffset":3520,"byteLength":1408,"target":34962,"byteStride":16},{"buffer":0,"byteOffset":4928,"byteLength":264,"target":34963},{"buffer":0,"byteOffset":5192,"byteLength":1216}],"buffers":[{"byteLength":6408,"uri":"data:application/octet-stream;base64,"}],"accessors":[{"bufferView":0,"componentType":5126,"count":88,"max":[0.30000001192092896,1.5,0.1875],"min":[-0.30000001192092896,0.8999999761581421,-0.25],"type":"VEC3"},{"bufferView":1,"componentType":5126,"count":88,"max":[0.9965457320213318,0.9922778606414795,0.9973658323287964],"min":[-0.9965457320213318,-1,-0.9912235736846924],"type":"VEC3"},{"bufferView":2,"componentType":5126,"count":88,"max":[0.75,0.84375],"min":[0,0],"type":"VEC2"},{"bufferView":3,"componentType":5123,"count":88,"max":[2,9,0,0],"min":[0,0,0,0],"type":"VEC4"},{"bufferView":4,"componentType":5126,"count":88,"max":[1,0.5,0,0],"min":[0.5,0,0,0],"type":"VEC4"},{"bufferView":5,"componentType":5123,"count":132,"max":[87],"min":[0],"type":"SCALAR"},{"bufferView":6,"componentType":5126,"count":19,"max":[1,0.9537169337272644,0.17298738658428192,0,0.9537169337272644,1,0,0,1.734723475976807e-18,0,1,0,1.3572032451629639,0.7675972580909729,0.03750000149011612,1],"min":[-0.9848077297210693,-0.9537169337272644,-0.17298738658428192,0,-0.9537169337272644,-0.9848077297210693,-0.981060266494751,0,-1.734723475976807e-18,-0.9961947202682495,0.08715574443340302,0,-1.3572032451629639,-1.75,-0.04473186656832695,1],"type":"MAT4"}],"materials":[{"pbrMetallicRoughness":{"metallicFactor":0,"roughnessFactor":1,"baseColorTexture":{"index":0}},"alphaMode":"MASK","alphaCutoff":0.05,"doubleSided":true}],"textures":[{"sampler":0,"source":0,"name":"vest"}],"samplers":[{"magFilter":9728,"minFilter":9728,"wrapS":33071,"wrapT":33071}],"images":[{"mimeType":"image/png","uri":"data:image/png;base64,"}],"meshes":[{"primitives":[{"mode":4,"attributes":{"POSITION":0,"NORMAL":1,"TEXCOORD_0":2,"JOINTS_0":3,"WEIGHTS_0":4},"indices":5,"material":0}]}],"skins":[{"inverseBindMatrices":6,"joints":[18,11,10,1,0,5,4,3,2,9,8,7,6,14,13,12,17,16,15],"skeleton":18}]}