{"asset":{"version":"2.0","generator":"Blockbench 5.0.7 glTF exporter"},"scenes":[{"nodes":[19],"name":"blockbench_export"}],"scene":0,"nodes":[{"translation":[0,0.1875,0],"name":"head_tip"},{"translation":[0,0.3125,0],"name":"head","children":[0]},{"translation":[0,0.3125,0],"name":"hand_l"},{"translation":[0,0.3125,-0.0375],"name":"forearm_l","children":[2]},{"rotation":[0,0,-0.08715574274765817,0.9961946980917455],"translation":[0,0.1875,0],"name":"bicep_l","children":[3]},{"rotation":[0,0,0.8549118706729465,0.5187732581605216],"translation":[-0.0625,0.1875,0],"name":"collarbone_l","children":[4]},{"translation":[0,0.3125,0],"name":"hand_r"},{"translation":[0,0.3125,0],"name":"forearm_r","children":[6]},{"rotation":[0,0,0.08715574274765817,0.9961946980917455],"translation":[0,0.1875,-0.0375],"name":"bicep_r","children":[7]},{"rotation":[0,0,-0.8549118706729465,0.5187732581605216],"translation":[0.0625,0.1875,0],"name":"collarbone_r","children":[8]},{"translation":[0,0.25,0],"name":"chest","children":[1,5,9]},{"translation":[0,0.125,0],"name":"stomach","children":[10]},{"rotation":[-0.6755902076156601,0,0,0.7372773368101241],"translation":[0,0.375,0],"name":"foot_l"},{"translation":[0,0.4375,0],"name":"calf_l","children":[12]},{"rotation":[0,0,0.9961946980917455,0.08715574274765836],"translation":[-0.1625,0,0],"name":"thigh_l","children":[13]},{"rotation":[-0.6755902076156601,0,0,0.7372773368101241],"translation":[0,0.375,0],"name":"foot_r"},{"translation":[0,0.4375,0],"name":"calf_r","children":[15]},{"rotation":[0,0,-0.9961946980917455,0.08715574274765836],"translation":[0.1625,0,0],"name":"thigh_r","children":[16]},{"translation":[0,0.875,0],"name":"pelvis","children":[11,14,17]},{"name":"armature","mesh":0,"children":[18],"skin":0}],"bufferViews":[{"buffer":0,"byteOffset":0,"byteLength":8832,"target":34962,"byteStride":12},{"buffer":0,"byteOffset":8832,"byteLength":8832,"target":34962,"byteStride":12},{"buffer":0,"byteOffset":17664,"byteLength":5888,"target":34962,"byteStride":8},{"buffer":0,"byteOffset":23552,"byteLength":5888,"target":34962,"byteStride":8},{"buffer":0,"byteOffset":29440,"byteLength":11776,"target":34962,"byteStride":16},{"buffer":0,"byteOffset":41216,"byteLength":144,"target":34963},{"buffer":0,"byteOffset":41360,"byteLength":144,"target":34963},{"buffer":0,"byteOffset":41504,"byteLength":72,"target":34963},{"buffer":0,"byteOffset":41576,"byteLength":72,"target":34963},{"buffer":0,"byteOffset":41648,"byteLength":168,"target":34963},{"buffer":0,"byteOffset":41816,"byteLength":168,"target":34963},{"buffer":0,"byteOffset":41984,"byteLength":168,"target":34963},{"buffer":0,"byteOffset":42152,"byteLength":168,"target":34963},{"buffer":0,"byteOffset":42320,"byteLength":600,"target":34963},{"buffer":0,"byteOffset":42920,"byteLength":264,"target":34963},{"buffer":0,"byteOffset":43184,"byteLength":204,"target":34963},{"buffer":0,"byteOffset":43388,"byteLength":1216}],"buffers":[{"byteLength":44604,"uri":"data:application/octet-stream;base64,"}],"accessors":[{"bufferView":0,"componentType":5126,"count":736,"max":[0.8754299879074097,2.369901418685913,0.7706587314605713],"min":[-0.8754298686981201,-0.007104839198291302,-0.375],"type":"VEC3"},{"bufferView":1,"componentType":5126,"count":736,"max":[1,1,1],"min":[-1,-1,-1],"type":"VEC3"},{"bufferView":2,"componentType":5126,"count":736,"max":[1,1],"min":[0,0],"type":"VEC2"},{"bufferView":3,"componentType":5123,"count":736,"max":[17,2,0,0],"min":[0,0,0,0],"type":"VEC4"},{"bufferView":4,"componentType":5126,"count":736,"max":[1,0.5,0,0],"min":[0,0,0,0],"type":"VEC4"},{"bufferView":5,"componentType":5123,"count":72,"max":[49],"min":[0],"type":"SCALAR"},{"bufferView":6,"componentType":5123,"count":72,"max":[99],"min":[50],"type":"SCALAR"},{"bufferView":7,"componentType":5123,"count":36,"max":[123],"min":[100],"type":"SCALAR"},{"bufferView":8,"componentType":5123,"count":36,"max":[147],"min":[124],"type":"SCALAR"},{"bufferView":9,"componentType":5123,"count":84,"max":[203],"min":[148],"type":"SCALAR"},{"bufferView":10,"componentType":5123,"count":84,"max":[259],"min":[204],"type":"SCALAR"},{"bufferView":11,"componentType":5123,"count":84,"max":[315],"min":[260],"type":"SCALAR"},{"bufferView":12,"componentType":5123,"count":84,"max":[371],"min":[316],"type":"SCALAR"},{"bufferView":13,"componentType":5123,"count":300,"max":[579],"min":[372],"type":"SCALAR"},{"bufferView":14,"componentType":5123,"count":132,"max":[667],"min":[580],"type":"SCALAR"},{"bufferView":15,"componentType":5123,"count":102,"max":[735],"min":[668],"type":"SCALAR"},{"bufferView":16,"componentType":5126,"count":19,"max":[1,0.9537169337272644,0.17298738658428192,0,0.9537169337272644,1,0,0,1.734723475976807e-18,0,1,0,1.3572032451629639,0.833488941192627,0.03750000149011612,1],"min":[-0.9848077297210693,-0.9537169337272644,-0.17298738658428192,0,-0.9537169337272644,-0.9848077297210693,-0.981060266494751,0,-1.734723475976807e-18,-0.9961947202682495,0.08715574443340302,0,-1.3572032451629639,-1.75,0,1],"type":"MAT4"}],"materials":[{"pbrMetallicRoughness":{"metallicFactor":0,"roughnessFactor":1,"baseColorTexture":{"index":0}},"alphaMode":"MASK","alphaCutoff":0.05,"doubleSided":true},{"pbrMetallicRoughness":{"metallicFactor":0,"roughnessFactor":1,"baseColorTexture":{"index":1}},"alphaMode":"MASK","alphaCutoff":0.05,"doubleSided":true},{"pbrMetallicRoughness":{"metallicFactor":0,"roughnessFactor":1,"baseColorTexture":{"index":2}},"alphaMode":"MASK","alphaCutoff":0.05,"doubleSided":true},{"pbrMetallicRoughness":{"metallicFactor":0,"roughnessFactor":1,"baseColorTexture":{"index":3}},"alphaMode":"MASK","alphaCutoff":0.05,"doubleSided":true},{"pbrMetallicRoughness":{"metallicFactor":0,"roughnessFactor":1,"baseColorTexture":{"index":4}},"alphaMode":"MASK","alphaCutoff":0.05,"doubleSided":true},{"pbrMetallicRoughness":{"metallicFactor":0,"roughnessFactor":1,"baseColorTexture":{"index":5}},"alphaMode":"MASK","alphaCutoff":0.05,"doubleSided":true},{"pbrMetallicRoughness":{"metallicFactor":0,"roughnessFactor":1,"baseColorTexture":{"index":6}},"alphaMode":"MASK","alphaCutoff":0.05,"doubleSided":true},{"pbrMetallicRoughness":{"metallicFactor":0,"roughnessFactor":1,"baseColorTexture":{"index":7}},"alphaMode":"MASK","alphaCutoff":0.05,"doubleSided":true},{"pbrMetallicRoughness":{"metallicFactor":0,"roughnessFactor":1,"baseColorTexture":{"index":8}},"alphaMode":"MASK","alphaCutoff":0.05,"doubleSided":true},{"pbrMetallicRoughness":{"metallicFactor":0,"roughnessFactor":1,"baseColorTexture":{"index":9}},"alphaMode":"MASK","alphaCutoff":0.05,"doubleSided":true},{"pbrMetallicRoughness":{"metallicFactor":0,"roughnessFactor":1,"baseColorTexture":{"index":10}},"alphaMode":"MASK","alphaCutoff":0.05,"doubleSided":true}],"textures":[{"sampler":0,"source":0,"name":"ear_right.png"},{"sampler":1,"source":1,"name":"ear_left.png"},{"sampler":2,"source":2,"name":"muzzle.png"},{"sampler":3,"source":3,"name":"face.png"},{"sampler":4,"source":4,"name":"leg_left.png"},{"sampler":5,"source":5,"name":"leg_right.png"},{"sampler":6,"source":6,"name":"arm_right.png"},{"sampler":7,"source":7,"name":"arm_left.png"},{"sampler":8,"source":8,"name":"helmet.png"},{"sampler":9,"source":9,"name":"tail.png"},{"sampler":10,"source":10,"name":"torso.png"}],"samplers":[{"magFilter":9728,"minFilter":9728,"wrapS":33071,"wrapT":33071},{"magFilter":9728,"minFilter":9728,"wrapS":33071,"wrapT":33071},{"magFilter":9728,"minFilter":9728,"wrapS":33071,"wrapT":33071},{"magFilter":9728,"minFilter":9728,"wrapS":33071,"wrapT":33071},{"magFilter":9728,"minFilter":9728,"wrapS":33071,"wrapT":33071},{"magFilter":9728,"minFilter":9728,"wrapS":33071,"wrapT":33071},{"magFilter":9728,"minFilter":9728,"wrapS":33071,"wrapT":33071},{"magFilter":9728,"minFilter":9728,"wrapS":33071,"wrapT":33071},{"magFilter":9728,"minFilter":9728,"wrapS":33071,"wrapT":33071},{"magFilter":9728,"minFilter":9728,"wrapS":33071,"wrapT":33071},{"magFilter":9728,"minFilter":9728,"wrapS":33071,"wrapT":33071}],"images":[{"mimeType":"image/png","uri":"data:image/png;base64,"},{"mimeType":"image/png","uri":"data:image/png;base64,"},{"mimeType":"image/png","uri":"data:image/png;base64,"},{"mimeType":"image/png","uri":"data:image/png;base64,"},{"mimeType":"image/png","uri":"data:image/png;base64,"},{"mimeType":"image/png","uri":"data:image/png;base64,"},{"mimeType":"image/png","uri":"data:image/png;base64,"},{"mimeType":"image/png","uri":"data:image/png;base64,"},{"mimeType":"image/png","uri":"data:image/png;base64,"},{"mimeType":"image/png","uri":"data:image/png;base64,"},{"mimeType":"image/png","uri":"data:image/png;base64,"}],"meshes":[{"primitives":[{"mode":4,"attributes":{"POSITION":0,"NORMAL":1,"TEXCOORD_0":2,"JOINTS_0":3,"WEIGHTS_0":4},"indices":5,"material":0},{"mode":4,"attributes":{"POSITION":0,"NORMAL":1,"TEXCOORD_0":2,"JOINTS_0":3,"WEIGHTS_0":4},"indices":6,"material":1},{"mode":4,"attributes":{"POSITION":0,"NORMAL":1,"TEXCOORD_0":2,"JOINTS_0":3,"WEIGHTS_0":4},"indices":7,"material":2},{"mode":4,"attributes":{"POSITION":0,"NORMAL":1,"TEXCOORD_0":2,"JOINTS_0":3,"WEIGHTS_0":4},"indices":8,"material":3},{"mode":4,"attributes":{"POSITION":0,"NORMAL":1,"TEXCOORD_0":2,"JOINTS_0":3,"WEIGHTS_0":4},"indices":9,"material":4},{"mode":4,"attributes":{"POSITION":0,"NORMAL":1,"TEXCOORD_0":2,"JOINTS_0":3,"WEIGHTS_0":4},"indices":10,"material":5},{"mode":4,"attributes":{"POSITION":0,"NORMAL":1,"TEXCOORD_0":2,"JOINTS_0":3,"WEIGHTS_0":4},"indices":11,"material":6},{"mode":4,"attributes":{"POSITION":0,"NORMAL":1,"TEXCOORD_0":2,"JOINTS_0":3,"WEIGHTS_0":4},"indices":12,"material":7},{"mode":4,"attributes":{"POSITION":0,"NORMAL":1,"TEXCOORD_0":2,"JOINTS_0":3,"WEIGHTS_0":4},"indices":13,"material":8},{"mode":4,"attributes":{"POSITION":0,"NORMAL":1,"TEXCOORD_0":2,"JOINTS_0":3,"WEIGHTS_0":4},"indices":14,"material":9},{"mode":4,"attributes":{"POSITION":0,"NORMAL":1,"TEXCOORD_0":2,"JOINTS_0":3,"WEIGHTS_0":4},"indices":15,"material":10}]}],"skins":[{"inverseBindMatrices":16,"joints":[18,11,10,1,0,5,4,3,2,9,8,7,6,14,13,12,17,16,15],"skeleton":18}]}